# xmcd CD database file
#
# Track frame offsets:
#	182
#	65330
#	101797
#	152775
#	167777
#	173400
#	184052
#
# Disc length: 2670 seconds
#
# Revision: 2
# Processed by: cddbd v1.5PL3 Copyright (c) Steve Scherf et al.
# Submitted via: CDex 1.51
#
DISCID=530a6c07
DTITLE=Vladimir Horowitz - Vladimir Horowitz - Enregistrements Aufnahmen 1930-1951
DYEAR=1900
DGENRE=
TTITLE0=ラフマニノフ/ピアノ協奏曲第３番ニ短調 作品30 第1楽章：アレグロ・ノン・タント
TTITLE1=第2楽章：間奏曲（アダージョ）
TTITLE2=第3楽章：フィナーレ（アラ・ブレーヴェ）
TTITLE3=ラフマニノフ/プレリュード ト短調 作品23 第5番
TTITLE4=リムスキー=コルサコフ/熊蜂の飛行
TTITLE5=ストラヴィンスキー/ロシア舞曲(バレエ音楽"ペトルーシュカ”より）
TTITLE6=プロコフィエフ/トッカータ ハ長調 作品11
EXTD=
EXTT0=
EXTT1=
EXTT2=
EXTT3=
EXTT4=
EXTT5=
EXTT6=
PLAYORDER=
